<svg width="40" height="40" viewBox="0 0 40 40" fill="none" xmlns="http://www.w3.org/2000/svg">
<path d="M28.3333 3.33301H11.6666C7.06421 3.33301 3.33325 7.06397 3.33325 11.6663V28.333C3.33325 32.9354 7.06421 36.6663 11.6666 36.6663H28.3333C32.9356 36.6663 36.6666 32.9354 36.6666 28.333V11.6663C36.6666 7.06397 32.9356 3.33301 28.3333 3.33301Z" stroke="white" stroke-width="2" stroke-linecap="round" stroke-linejoin="round"/>
<path d="M26.6668 18.9495C26.8724 20.3366 26.6355 21.7532 25.9897 22.9979C25.3439 24.2425 24.322 25.2519 23.0695 25.8823C21.8169 26.5128 20.3975 26.7322 19.0131 26.5094C17.6286 26.2866 16.3497 25.633 15.3581 24.6415C14.3666 23.6499 13.713 22.371 13.4902 20.9865C13.2674 19.6021 13.4869 18.1827 14.1173 16.9301C14.7477 15.6776 15.7571 14.6558 17.0017 14.0099C18.2464 13.3641 19.663 13.1272 21.0501 13.3329C22.465 13.5427 23.7748 14.202 24.7862 15.2134C25.7976 16.2248 26.4569 17.5347 26.6668 18.9495Z" stroke="white" stroke-width="2" stroke-linecap="round" stroke-linejoin="round"/>
<path d="M29.1667 10.833H29.1834" stroke="white" stroke-width="2" stroke-linecap="round" stroke-linejoin="round"/>
</svg>
