<svg width="40" height="40" viewBox="0 0 40 40" fill="none" xmlns="http://www.w3.org/2000/svg">
<path d="M26.6668 13.333C29.3189 13.333 31.8625 14.3866 33.7378 16.2619C35.6132 18.1373 36.6668 20.6808 36.6668 23.333V34.9997H30.0001V23.333C30.0001 22.449 29.6489 21.6011 29.0238 20.976C28.3987 20.3509 27.5508 19.9997 26.6668 19.9997C25.7827 19.9997 24.9349 20.3509 24.3097 20.976C23.6846 21.6011 23.3334 22.449 23.3334 23.333V34.9997H16.6667V23.333C16.6667 20.6808 17.7203 18.1373 19.5957 16.2619C21.471 14.3866 24.0146 13.333 26.6668 13.333V13.333Z" stroke="white" stroke-width="2" stroke-linecap="round" stroke-linejoin="round"/>
<path d="M9.99992 15H3.33325V35H9.99992V15Z" stroke="white" stroke-width="2" stroke-linecap="round" stroke-linejoin="round"/>
<path d="M6.66659 9.99967C8.50754 9.99967 9.99992 8.50729 9.99992 6.66634C9.99992 4.82539 8.50754 3.33301 6.66659 3.33301C4.82564 3.33301 3.33325 4.82539 3.33325 6.66634C3.33325 8.50729 4.82564 9.99967 6.66659 9.99967Z" stroke="white" stroke-width="2" stroke-linecap="round" stroke-linejoin="round"/>
</svg>
