<svg width="90" height="90" viewBox="0 0 90 90" fill="none" xmlns="http://www.w3.org/2000/svg">
<g clip-path="url(#clip0)">
<mask id="mask0" mask-type="alpha" maskUnits="userSpaceOnUse" x="4" y="12" width="89" height="81">
<path d="M50.2627 78.403C46.5322 79.7953 42.4941 80.5564 38.2782 80.5564C19.3469 80.5564 4 65.2095 4 46.2782C4 27.3469 19.3469 12 38.2782 12C57.0778 12 72.3426 27.134 72.5542 45.8835L92.8622 60.3423L69.9991 92.4547L50.2627 78.403Z" fill="#C4C4C4"/>
</mask>
<g mask="url(#mask0)">
<path d="M72.5564 46.2782C72.5564 65.2095 57.2095 80.5564 38.2782 80.5564C19.3469 80.5564 4 65.2095 4 46.2782C4 27.3469 19.3469 12 38.2782 12C57.2095 12 72.5564 27.3469 72.5564 46.2782Z" fill="#1353B4"/>
<path d="M27 37.7311C23.4053 37.1582 7.00008 29.5 7.00008 29.5C7.00008 29.5 3.50009 35.5 2.50011 40.5C1.50012 45.5 2.50011 52 2.50011 52C2.50011 52 20.0835 57.7615 21.4429 58.3954C22.8024 59.0293 29.8721 63.981 31.4734 65.2794C33.0747 66.5778 38.7239 68.6604 38.7239 68.6604C38.7239 68.6604 56.1245 75.1193 57.2421 75.0888C58.3597 75.0583 62.1657 75.178 63.4946 74.6943C64.8235 74.2106 66.5445 71.703 66.5445 71.703C66.5445 71.703 75.2742 71.9118 76.6031 71.4282C77.932 70.9445 78.566 69.585 78.566 69.585L79.9254 70.2189C79.9254 70.2189 83.762 71.4562 85.0298 68.7373C86.2977 66.0184 82.6724 64.3279 82.6724 64.3279L77.6324 62.1222C77.6324 62.1222 81.3129 63.6941 82.3695 61.4283C83.426 59.1625 80.2234 56.5658 80.2234 56.5658C80.2234 56.5658 50.4961 41.0486 49.5592 39.5084C48.6224 37.9681 50.5853 36.1249 50.5853 36.1249L53.6658 34.2512L58.317 32.5583C58.317 32.5583 63.1489 29.2947 61.7284 26.4255C60.3079 23.5563 53.452 26.4279 53.452 26.4279L41.703 30.3279C40.1627 31.2648 38.8643 32.8661 38.8643 32.8661C38.8643 32.8661 33.3984 37.4893 32.7339 37.7311C32.0695 37.9729 30.5947 38.304 27 37.7311Z" fill="white"/>
<path d="M78.566 69.585L79.9254 70.2189C79.9254 70.2189 83.762 71.4562 85.0298 68.7373C86.2977 66.0184 82.6724 64.3279 82.6724 64.3279L63.4287 55.9061L77.6324 62.1222C77.6324 62.1222 81.3129 63.6941 82.3695 61.4283C83.426 59.1625 80.2234 56.5658 80.2234 56.5658C80.2234 56.5658 50.4961 41.0486 49.5592 39.5084C48.6224 37.9681 50.5853 36.1249 50.5853 36.1249L53.6658 34.2512L58.317 32.5583C58.317 32.5583 63.1489 29.2947 61.7284 26.4255C60.3079 23.5563 53.452 26.4279 53.452 26.4279L41.703 30.3279C40.1627 31.2648 38.8643 32.8661 38.8643 32.8661C38.8643 32.8661 33.3984 37.4893 32.7339 37.7311C32.0695 37.9729 30.5947 38.304 27 37.7311C23.4053 37.1582 7.00008 29.5 7.00008 29.5C7.00008 29.5 3.50009 35.5 2.50011 40.5C1.50012 45.5 2.50011 52 2.50011 52C2.50011 52 20.0835 57.7615 21.4429 58.3954C22.8024 59.0293 29.8721 63.981 31.4734 65.2794C33.0747 66.5778 38.7239 68.6604 38.7239 68.6604C38.7239 68.6604 56.1245 75.1193 57.2421 75.0888C58.3597 75.0583 62.1657 75.178 63.4946 74.6943C64.8235 74.2106 66.5445 71.703 66.5445 71.703M78.566 69.585C78.566 69.585 77.932 70.9445 76.6031 71.4282C75.2742 71.9118 66.5445 71.703 66.5445 71.703M78.566 69.585C78.566 69.585 78.9886 68.6787 78.5049 67.3498C78.0212 66.0208 75.786 66.0819 75.786 66.0819C75.786 66.0819 67.5095 66.0844 66.15 65.4504C64.7906 64.8165 60.0172 62.039 60.0172 62.039M66.5445 71.703C66.9672 70.7967 67.1785 70.3435 66.9366 69.6791C66.6948 69.0146 65.7885 68.592 64.6709 68.6225C63.5532 68.6531 62.013 69.5899 62.013 69.5899C62.013 69.5899 59.7778 69.651 58.8715 69.2283C57.9652 68.8057 54.34 67.1153 54.34 67.1153M44.7932 61.5602C44.7932 61.5602 43.3727 58.691 41.499 55.6105C39.6253 52.5301 36.2114 50.3864 36.2114 50.3864" stroke="#1353B4" stroke-width="1.5" stroke-linecap="round" stroke-linejoin="round"/>
</g>
</g>
<defs>
<clipPath id="clip0">
<rect width="90" height="90" fill="white"/>
</clipPath>
</defs>
</svg>
